<mxfile host="app.diagrams.net" modified="2020-12-28T23:51:06.072Z" agent="5.0 (Windows NT 10.0; Win64; x64) AppleWebKit/537.36 (KHTML, like Gecko) Chrome/87.0.4280.88 Safari/537.36" etag="AAhG2XSkGujXkm7YQarr" version="14.1.2" type="github">
  <diagram id="6RAhMwgEnqG0ZkrY2bJO" name="Page-1">
    <mxGraphModel dx="868" dy="482" grid="1" gridSize="10" guides="1" tooltips="1" connect="1" arrows="1" fold="1" page="1" pageScale="1" pageWidth="850" pageHeight="1100" math="0" shadow="0">
      <root>
        <mxCell id="0" />
        <mxCell id="1" parent="0" />
        <mxCell id="2E9qyfMBGnePaLgDD7Aq-1" value="Tra cứu Học sinh" style="strokeWidth=1;shadow=0;dashed=0;align=center;html=1;shape=mxgraph.mockup.containers.window;align=left;verticalAlign=top;spacingLeft=8;strokeColor2=#008cff;strokeColor3=#c4c4c4;mainText=;fontSize=17;labelBackgroundColor=none;" vertex="1" parent="1">
          <mxGeometry x="10" y="10" width="640" height="410" as="geometry" />
        </mxCell>
        <mxCell id="2E9qyfMBGnePaLgDD7Aq-2" value="Các tiêu chuẩn tra cứu" style="text;html=1;strokeColor=none;fillColor=none;align=center;verticalAlign=middle;whiteSpace=wrap;rounded=0;fontSize=18;fontStyle=1" vertex="1" parent="1">
          <mxGeometry x="150" y="60" width="250" height="20" as="geometry" />
        </mxCell>
        <mxCell id="2E9qyfMBGnePaLgDD7Aq-3" value="" style="shape=table;html=1;whiteSpace=wrap;startSize=0;container=1;collapsible=0;childLayout=tableLayout;fontSize=18;spacing=1;" vertex="1" parent="1">
          <mxGeometry x="30" y="90" width="600" height="70" as="geometry" />
        </mxCell>
        <mxCell id="2E9qyfMBGnePaLgDD7Aq-4" value="" style="shape=partialRectangle;html=1;whiteSpace=wrap;collapsible=0;dropTarget=0;pointerEvents=0;fillColor=none;top=0;left=0;bottom=0;right=0;points=[[0,0.5],[1,0.5]];portConstraint=eastwest;" vertex="1" parent="2E9qyfMBGnePaLgDD7Aq-3">
          <mxGeometry width="600" height="23" as="geometry" />
        </mxCell>
        <mxCell id="2E9qyfMBGnePaLgDD7Aq-5" value="STT" style="shape=partialRectangle;html=1;whiteSpace=wrap;connectable=0;fillColor=none;top=0;left=0;bottom=0;right=0;overflow=hidden;fontSize=14;" vertex="1" parent="2E9qyfMBGnePaLgDD7Aq-4">
          <mxGeometry width="50" height="23" as="geometry" />
        </mxCell>
        <mxCell id="2E9qyfMBGnePaLgDD7Aq-6" value="Học sinh" style="shape=partialRectangle;html=1;whiteSpace=wrap;connectable=0;fillColor=none;top=0;left=0;bottom=0;right=0;overflow=hidden;fontSize=14;" vertex="1" parent="2E9qyfMBGnePaLgDD7Aq-4">
          <mxGeometry x="50" width="130" height="23" as="geometry" />
        </mxCell>
        <mxCell id="2E9qyfMBGnePaLgDD7Aq-7" value="Lớp" style="shape=partialRectangle;html=1;whiteSpace=wrap;connectable=0;fillColor=none;top=0;left=0;bottom=0;right=0;overflow=hidden;fontSize=14;" vertex="1" parent="2E9qyfMBGnePaLgDD7Aq-4">
          <mxGeometry x="180" width="50" height="23" as="geometry" />
        </mxCell>
        <mxCell id="2E9qyfMBGnePaLgDD7Aq-23" value="Ng.SInh" style="shape=partialRectangle;html=1;whiteSpace=wrap;connectable=0;fillColor=none;top=0;left=0;bottom=0;right=0;overflow=hidden;fontSize=14;" vertex="1" parent="2E9qyfMBGnePaLgDD7Aq-4">
          <mxGeometry x="230" width="110" height="23" as="geometry" />
        </mxCell>
        <mxCell id="2E9qyfMBGnePaLgDD7Aq-20" value="Vắng" style="shape=partialRectangle;html=1;whiteSpace=wrap;connectable=0;fillColor=none;top=0;left=0;bottom=0;right=0;overflow=hidden;fontSize=14;" vertex="1" parent="2E9qyfMBGnePaLgDD7Aq-4">
          <mxGeometry x="340" width="80" height="23" as="geometry" />
        </mxCell>
        <mxCell id="2E9qyfMBGnePaLgDD7Aq-26" value="TB HK1" style="shape=partialRectangle;html=1;whiteSpace=wrap;connectable=0;fillColor=none;top=0;left=0;bottom=0;right=0;overflow=hidden;fontSize=14;" vertex="1" parent="2E9qyfMBGnePaLgDD7Aq-4">
          <mxGeometry x="420" width="90" height="23" as="geometry" />
        </mxCell>
        <mxCell id="2E9qyfMBGnePaLgDD7Aq-90" value="TB HK2" style="shape=partialRectangle;html=1;whiteSpace=wrap;connectable=0;fillColor=none;top=0;left=0;bottom=0;right=0;overflow=hidden;fontSize=14;" vertex="1" parent="2E9qyfMBGnePaLgDD7Aq-4">
          <mxGeometry x="510" width="90" height="23" as="geometry" />
        </mxCell>
        <mxCell id="2E9qyfMBGnePaLgDD7Aq-8" value="" style="shape=partialRectangle;html=1;whiteSpace=wrap;collapsible=0;dropTarget=0;pointerEvents=0;fillColor=none;top=0;left=0;bottom=0;right=0;points=[[0,0.5],[1,0.5]];portConstraint=eastwest;" vertex="1" parent="2E9qyfMBGnePaLgDD7Aq-3">
          <mxGeometry y="23" width="600" height="24" as="geometry" />
        </mxCell>
        <mxCell id="2E9qyfMBGnePaLgDD7Aq-9" value="" style="shape=partialRectangle;html=1;whiteSpace=wrap;connectable=0;fillColor=none;top=0;left=0;bottom=0;right=0;overflow=hidden;" vertex="1" parent="2E9qyfMBGnePaLgDD7Aq-8">
          <mxGeometry width="50" height="24" as="geometry" />
        </mxCell>
        <mxCell id="2E9qyfMBGnePaLgDD7Aq-10" value="" style="shape=partialRectangle;html=1;whiteSpace=wrap;connectable=0;fillColor=none;top=0;left=0;bottom=0;right=0;overflow=hidden;" vertex="1" parent="2E9qyfMBGnePaLgDD7Aq-8">
          <mxGeometry x="50" width="130" height="24" as="geometry" />
        </mxCell>
        <mxCell id="2E9qyfMBGnePaLgDD7Aq-11" value="" style="shape=partialRectangle;html=1;whiteSpace=wrap;connectable=0;fillColor=none;top=0;left=0;bottom=0;right=0;overflow=hidden;" vertex="1" parent="2E9qyfMBGnePaLgDD7Aq-8">
          <mxGeometry x="180" width="50" height="24" as="geometry" />
        </mxCell>
        <mxCell id="2E9qyfMBGnePaLgDD7Aq-24" style="shape=partialRectangle;html=1;whiteSpace=wrap;connectable=0;fillColor=none;top=0;left=0;bottom=0;right=0;overflow=hidden;" vertex="1" parent="2E9qyfMBGnePaLgDD7Aq-8">
          <mxGeometry x="230" width="110" height="24" as="geometry" />
        </mxCell>
        <mxCell id="2E9qyfMBGnePaLgDD7Aq-21" style="shape=partialRectangle;html=1;whiteSpace=wrap;connectable=0;fillColor=none;top=0;left=0;bottom=0;right=0;overflow=hidden;" vertex="1" parent="2E9qyfMBGnePaLgDD7Aq-8">
          <mxGeometry x="340" width="80" height="24" as="geometry" />
        </mxCell>
        <mxCell id="2E9qyfMBGnePaLgDD7Aq-27" style="shape=partialRectangle;html=1;whiteSpace=wrap;connectable=0;fillColor=none;top=0;left=0;bottom=0;right=0;overflow=hidden;" vertex="1" parent="2E9qyfMBGnePaLgDD7Aq-8">
          <mxGeometry x="420" width="90" height="24" as="geometry" />
        </mxCell>
        <mxCell id="2E9qyfMBGnePaLgDD7Aq-91" style="shape=partialRectangle;html=1;whiteSpace=wrap;connectable=0;fillColor=none;top=0;left=0;bottom=0;right=0;overflow=hidden;" vertex="1" parent="2E9qyfMBGnePaLgDD7Aq-8">
          <mxGeometry x="510" width="90" height="24" as="geometry" />
        </mxCell>
        <mxCell id="2E9qyfMBGnePaLgDD7Aq-12" value="" style="shape=partialRectangle;html=1;whiteSpace=wrap;collapsible=0;dropTarget=0;pointerEvents=0;fillColor=none;top=0;left=0;bottom=0;right=0;points=[[0,0.5],[1,0.5]];portConstraint=eastwest;" vertex="1" parent="2E9qyfMBGnePaLgDD7Aq-3">
          <mxGeometry y="47" width="600" height="23" as="geometry" />
        </mxCell>
        <mxCell id="2E9qyfMBGnePaLgDD7Aq-13" value="" style="shape=partialRectangle;html=1;whiteSpace=wrap;connectable=0;fillColor=none;top=0;left=0;bottom=0;right=0;overflow=hidden;" vertex="1" parent="2E9qyfMBGnePaLgDD7Aq-12">
          <mxGeometry width="50" height="23" as="geometry" />
        </mxCell>
        <mxCell id="2E9qyfMBGnePaLgDD7Aq-14" value="" style="shape=partialRectangle;html=1;whiteSpace=wrap;connectable=0;fillColor=none;top=0;left=0;bottom=0;right=0;overflow=hidden;" vertex="1" parent="2E9qyfMBGnePaLgDD7Aq-12">
          <mxGeometry x="50" width="130" height="23" as="geometry" />
        </mxCell>
        <mxCell id="2E9qyfMBGnePaLgDD7Aq-15" value="" style="shape=partialRectangle;html=1;whiteSpace=wrap;connectable=0;fillColor=none;top=0;left=0;bottom=0;right=0;overflow=hidden;" vertex="1" parent="2E9qyfMBGnePaLgDD7Aq-12">
          <mxGeometry x="180" width="50" height="23" as="geometry" />
        </mxCell>
        <mxCell id="2E9qyfMBGnePaLgDD7Aq-25" style="shape=partialRectangle;html=1;whiteSpace=wrap;connectable=0;fillColor=none;top=0;left=0;bottom=0;right=0;overflow=hidden;" vertex="1" parent="2E9qyfMBGnePaLgDD7Aq-12">
          <mxGeometry x="230" width="110" height="23" as="geometry" />
        </mxCell>
        <mxCell id="2E9qyfMBGnePaLgDD7Aq-22" style="shape=partialRectangle;html=1;whiteSpace=wrap;connectable=0;fillColor=none;top=0;left=0;bottom=0;right=0;overflow=hidden;" vertex="1" parent="2E9qyfMBGnePaLgDD7Aq-12">
          <mxGeometry x="340" width="80" height="23" as="geometry" />
        </mxCell>
        <mxCell id="2E9qyfMBGnePaLgDD7Aq-28" style="shape=partialRectangle;html=1;whiteSpace=wrap;connectable=0;fillColor=none;top=0;left=0;bottom=0;right=0;overflow=hidden;" vertex="1" parent="2E9qyfMBGnePaLgDD7Aq-12">
          <mxGeometry x="420" width="90" height="23" as="geometry" />
        </mxCell>
        <mxCell id="2E9qyfMBGnePaLgDD7Aq-92" style="shape=partialRectangle;html=1;whiteSpace=wrap;connectable=0;fillColor=none;top=0;left=0;bottom=0;right=0;overflow=hidden;" vertex="1" parent="2E9qyfMBGnePaLgDD7Aq-12">
          <mxGeometry x="510" width="90" height="23" as="geometry" />
        </mxCell>
        <mxCell id="2E9qyfMBGnePaLgDD7Aq-29" value="Quá trình học các môn học của học kỳ" style="text;html=1;strokeColor=none;fillColor=none;align=center;verticalAlign=middle;whiteSpace=wrap;rounded=0;fontSize=18;fontStyle=0" vertex="1" parent="1">
          <mxGeometry x="30" y="170" width="320" height="20" as="geometry" />
        </mxCell>
        <mxCell id="2E9qyfMBGnePaLgDD7Aq-31" value="" style="shape=table;html=1;whiteSpace=wrap;startSize=0;container=1;collapsible=0;childLayout=tableLayout;fontSize=18;spacing=1;" vertex="1" parent="1">
          <mxGeometry x="30" y="250" width="250" height="70" as="geometry" />
        </mxCell>
        <mxCell id="2E9qyfMBGnePaLgDD7Aq-32" value="" style="shape=partialRectangle;html=1;whiteSpace=wrap;collapsible=0;dropTarget=0;pointerEvents=0;fillColor=none;top=0;left=0;bottom=0;right=0;points=[[0,0.5],[1,0.5]];portConstraint=eastwest;" vertex="1" parent="2E9qyfMBGnePaLgDD7Aq-31">
          <mxGeometry width="250" height="23" as="geometry" />
        </mxCell>
        <mxCell id="2E9qyfMBGnePaLgDD7Aq-33" value="STT" style="shape=partialRectangle;html=1;whiteSpace=wrap;connectable=0;fillColor=none;top=0;left=0;bottom=0;right=0;overflow=hidden;fontSize=14;" vertex="1" parent="2E9qyfMBGnePaLgDD7Aq-32">
          <mxGeometry width="52" height="23" as="geometry" />
        </mxCell>
        <mxCell id="2E9qyfMBGnePaLgDD7Aq-34" value="Môn học" style="shape=partialRectangle;html=1;whiteSpace=wrap;connectable=0;fillColor=none;top=0;left=0;bottom=0;right=0;overflow=hidden;fontSize=14;" vertex="1" parent="2E9qyfMBGnePaLgDD7Aq-32">
          <mxGeometry x="52" width="115" height="23" as="geometry" />
        </mxCell>
        <mxCell id="2E9qyfMBGnePaLgDD7Aq-35" value="Trung bình" style="shape=partialRectangle;html=1;whiteSpace=wrap;connectable=0;fillColor=none;top=0;left=0;bottom=0;right=0;overflow=hidden;fontSize=14;" vertex="1" parent="2E9qyfMBGnePaLgDD7Aq-32">
          <mxGeometry x="167" width="83" height="23" as="geometry" />
        </mxCell>
        <mxCell id="2E9qyfMBGnePaLgDD7Aq-39" value="" style="shape=partialRectangle;html=1;whiteSpace=wrap;collapsible=0;dropTarget=0;pointerEvents=0;fillColor=none;top=0;left=0;bottom=0;right=0;points=[[0,0.5],[1,0.5]];portConstraint=eastwest;" vertex="1" parent="2E9qyfMBGnePaLgDD7Aq-31">
          <mxGeometry y="23" width="250" height="24" as="geometry" />
        </mxCell>
        <mxCell id="2E9qyfMBGnePaLgDD7Aq-40" value="" style="shape=partialRectangle;html=1;whiteSpace=wrap;connectable=0;fillColor=none;top=0;left=0;bottom=0;right=0;overflow=hidden;" vertex="1" parent="2E9qyfMBGnePaLgDD7Aq-39">
          <mxGeometry width="52" height="24" as="geometry" />
        </mxCell>
        <mxCell id="2E9qyfMBGnePaLgDD7Aq-41" value="" style="shape=partialRectangle;html=1;whiteSpace=wrap;connectable=0;fillColor=none;top=0;left=0;bottom=0;right=0;overflow=hidden;" vertex="1" parent="2E9qyfMBGnePaLgDD7Aq-39">
          <mxGeometry x="52" width="115" height="24" as="geometry" />
        </mxCell>
        <mxCell id="2E9qyfMBGnePaLgDD7Aq-42" value="" style="shape=partialRectangle;html=1;whiteSpace=wrap;connectable=0;fillColor=none;top=0;left=0;bottom=0;right=0;overflow=hidden;" vertex="1" parent="2E9qyfMBGnePaLgDD7Aq-39">
          <mxGeometry x="167" width="83" height="24" as="geometry" />
        </mxCell>
        <mxCell id="2E9qyfMBGnePaLgDD7Aq-46" value="" style="shape=partialRectangle;html=1;whiteSpace=wrap;collapsible=0;dropTarget=0;pointerEvents=0;fillColor=none;top=0;left=0;bottom=0;right=0;points=[[0,0.5],[1,0.5]];portConstraint=eastwest;" vertex="1" parent="2E9qyfMBGnePaLgDD7Aq-31">
          <mxGeometry y="47" width="250" height="23" as="geometry" />
        </mxCell>
        <mxCell id="2E9qyfMBGnePaLgDD7Aq-47" value="" style="shape=partialRectangle;html=1;whiteSpace=wrap;connectable=0;fillColor=none;top=0;left=0;bottom=0;right=0;overflow=hidden;" vertex="1" parent="2E9qyfMBGnePaLgDD7Aq-46">
          <mxGeometry width="52" height="23" as="geometry" />
        </mxCell>
        <mxCell id="2E9qyfMBGnePaLgDD7Aq-48" value="" style="shape=partialRectangle;html=1;whiteSpace=wrap;connectable=0;fillColor=none;top=0;left=0;bottom=0;right=0;overflow=hidden;" vertex="1" parent="2E9qyfMBGnePaLgDD7Aq-46">
          <mxGeometry x="52" width="115" height="23" as="geometry" />
        </mxCell>
        <mxCell id="2E9qyfMBGnePaLgDD7Aq-49" value="" style="shape=partialRectangle;html=1;whiteSpace=wrap;connectable=0;fillColor=none;top=0;left=0;bottom=0;right=0;overflow=hidden;" vertex="1" parent="2E9qyfMBGnePaLgDD7Aq-46">
          <mxGeometry x="167" width="83" height="23" as="geometry" />
        </mxCell>
        <mxCell id="2E9qyfMBGnePaLgDD7Aq-66" value="" style="shape=table;html=1;whiteSpace=wrap;startSize=0;container=1;collapsible=0;childLayout=tableLayout;fontSize=18;spacing=1;" vertex="1" parent="1">
          <mxGeometry x="390" y="250" width="240" height="70" as="geometry" />
        </mxCell>
        <mxCell id="2E9qyfMBGnePaLgDD7Aq-67" value="" style="shape=partialRectangle;html=1;whiteSpace=wrap;collapsible=0;dropTarget=0;pointerEvents=0;fillColor=none;top=0;left=0;bottom=0;right=0;points=[[0,0.5],[1,0.5]];portConstraint=eastwest;" vertex="1" parent="2E9qyfMBGnePaLgDD7Aq-66">
          <mxGeometry width="240" height="23" as="geometry" />
        </mxCell>
        <mxCell id="2E9qyfMBGnePaLgDD7Aq-68" value="STT" style="shape=partialRectangle;html=1;whiteSpace=wrap;connectable=0;fillColor=none;top=0;left=0;bottom=0;right=0;overflow=hidden;fontSize=14;" vertex="1" parent="2E9qyfMBGnePaLgDD7Aq-67">
          <mxGeometry width="52" height="23" as="geometry" />
        </mxCell>
        <mxCell id="2E9qyfMBGnePaLgDD7Aq-69" value="Hình thức thi" style="shape=partialRectangle;html=1;whiteSpace=wrap;connectable=0;fillColor=none;top=0;left=0;bottom=0;right=0;overflow=hidden;fontSize=14;" vertex="1" parent="2E9qyfMBGnePaLgDD7Aq-67">
          <mxGeometry x="52" width="115" height="23" as="geometry" />
        </mxCell>
        <mxCell id="2E9qyfMBGnePaLgDD7Aq-70" value="Điểm số" style="shape=partialRectangle;html=1;whiteSpace=wrap;connectable=0;fillColor=none;top=0;left=0;bottom=0;right=0;overflow=hidden;fontSize=14;" vertex="1" parent="2E9qyfMBGnePaLgDD7Aq-67">
          <mxGeometry x="167" width="73" height="23" as="geometry" />
        </mxCell>
        <mxCell id="2E9qyfMBGnePaLgDD7Aq-71" value="" style="shape=partialRectangle;html=1;whiteSpace=wrap;collapsible=0;dropTarget=0;pointerEvents=0;fillColor=none;top=0;left=0;bottom=0;right=0;points=[[0,0.5],[1,0.5]];portConstraint=eastwest;" vertex="1" parent="2E9qyfMBGnePaLgDD7Aq-66">
          <mxGeometry y="23" width="240" height="24" as="geometry" />
        </mxCell>
        <mxCell id="2E9qyfMBGnePaLgDD7Aq-72" value="" style="shape=partialRectangle;html=1;whiteSpace=wrap;connectable=0;fillColor=none;top=0;left=0;bottom=0;right=0;overflow=hidden;" vertex="1" parent="2E9qyfMBGnePaLgDD7Aq-71">
          <mxGeometry width="52" height="24" as="geometry" />
        </mxCell>
        <mxCell id="2E9qyfMBGnePaLgDD7Aq-73" value="" style="shape=partialRectangle;html=1;whiteSpace=wrap;connectable=0;fillColor=none;top=0;left=0;bottom=0;right=0;overflow=hidden;" vertex="1" parent="2E9qyfMBGnePaLgDD7Aq-71">
          <mxGeometry x="52" width="115" height="24" as="geometry" />
        </mxCell>
        <mxCell id="2E9qyfMBGnePaLgDD7Aq-74" value="" style="shape=partialRectangle;html=1;whiteSpace=wrap;connectable=0;fillColor=none;top=0;left=0;bottom=0;right=0;overflow=hidden;" vertex="1" parent="2E9qyfMBGnePaLgDD7Aq-71">
          <mxGeometry x="167" width="73" height="24" as="geometry" />
        </mxCell>
        <mxCell id="2E9qyfMBGnePaLgDD7Aq-75" value="" style="shape=partialRectangle;html=1;whiteSpace=wrap;collapsible=0;dropTarget=0;pointerEvents=0;fillColor=none;top=0;left=0;bottom=0;right=0;points=[[0,0.5],[1,0.5]];portConstraint=eastwest;" vertex="1" parent="2E9qyfMBGnePaLgDD7Aq-66">
          <mxGeometry y="47" width="240" height="23" as="geometry" />
        </mxCell>
        <mxCell id="2E9qyfMBGnePaLgDD7Aq-76" value="" style="shape=partialRectangle;html=1;whiteSpace=wrap;connectable=0;fillColor=none;top=0;left=0;bottom=0;right=0;overflow=hidden;" vertex="1" parent="2E9qyfMBGnePaLgDD7Aq-75">
          <mxGeometry width="52" height="23" as="geometry" />
        </mxCell>
        <mxCell id="2E9qyfMBGnePaLgDD7Aq-77" value="" style="shape=partialRectangle;html=1;whiteSpace=wrap;connectable=0;fillColor=none;top=0;left=0;bottom=0;right=0;overflow=hidden;" vertex="1" parent="2E9qyfMBGnePaLgDD7Aq-75">
          <mxGeometry x="52" width="115" height="23" as="geometry" />
        </mxCell>
        <mxCell id="2E9qyfMBGnePaLgDD7Aq-78" value="" style="shape=partialRectangle;html=1;whiteSpace=wrap;connectable=0;fillColor=none;top=0;left=0;bottom=0;right=0;overflow=hidden;" vertex="1" parent="2E9qyfMBGnePaLgDD7Aq-75">
          <mxGeometry x="167" width="73" height="23" as="geometry" />
        </mxCell>
        <mxCell id="2E9qyfMBGnePaLgDD7Aq-79" value="Các cột điểm" style="text;html=1;strokeColor=none;fillColor=none;align=left;verticalAlign=middle;whiteSpace=wrap;rounded=0;fontSize=18;fontStyle=0" vertex="1" parent="1">
          <mxGeometry x="390" y="220" width="120" height="20" as="geometry" />
        </mxCell>
        <mxCell id="2E9qyfMBGnePaLgDD7Aq-82" value="In danh sách HS" style="html=1;shadow=0;dashed=0;shape=mxgraph.bootstrap.rrect;rSize=5;strokeColor=none;strokeWidth=1;fillColor=#0085FC;fontColor=#FFFFFF;whiteSpace=wrap;align=center;verticalAlign=middle;spacingLeft=0;fontStyle=0;fontSize=16;spacing=5;" vertex="1" parent="1">
          <mxGeometry x="45" y="350" width="160" height="40" as="geometry" />
        </mxCell>
        <mxCell id="2E9qyfMBGnePaLgDD7Aq-83" value="Tra cứu" style="html=1;shadow=0;dashed=0;shape=mxgraph.bootstrap.rrect;rSize=5;strokeColor=none;strokeWidth=1;fillColor=#0085FC;fontColor=#FFFFFF;whiteSpace=wrap;align=center;verticalAlign=middle;spacingLeft=0;fontStyle=0;fontSize=16;spacing=5;" vertex="1" parent="1">
          <mxGeometry x="425" y="350" width="80" height="40" as="geometry" />
        </mxCell>
        <mxCell id="2E9qyfMBGnePaLgDD7Aq-84" value="In phiếu điểm HS" style="html=1;shadow=0;dashed=0;shape=mxgraph.bootstrap.rrect;rSize=5;strokeColor=none;strokeWidth=1;fillColor=#0085FC;fontColor=#FFFFFF;whiteSpace=wrap;align=center;verticalAlign=middle;spacingLeft=0;fontStyle=0;fontSize=16;spacing=5;" vertex="1" parent="1">
          <mxGeometry x="235" y="350" width="160" height="40" as="geometry" />
        </mxCell>
        <mxCell id="2E9qyfMBGnePaLgDD7Aq-85" value="Thoát" style="html=1;shadow=0;dashed=0;shape=mxgraph.bootstrap.rrect;rSize=5;strokeColor=none;strokeWidth=1;fillColor=#0085FC;fontColor=#FFFFFF;whiteSpace=wrap;align=center;verticalAlign=middle;spacingLeft=0;fontStyle=0;fontSize=16;spacing=5;" vertex="1" parent="1">
          <mxGeometry x="535" y="350" width="80" height="40" as="geometry" />
        </mxCell>
        <mxCell id="2E9qyfMBGnePaLgDD7Aq-93" value="Học kỳ 1" style="strokeWidth=1;shadow=0;dashed=0;align=center;html=1;shape=mxgraph.mockup.forms.comboBox;strokeColor=#999999;fillColor=#ddeeff;align=left;fillColor2=#aaddff;mainText=;fontColor=#666666;fontSize=17;spacingLeft=3;" vertex="1" parent="1">
          <mxGeometry x="360" y="165" width="120" height="30" as="geometry" />
        </mxCell>
      </root>
    </mxGraphModel>
  </diagram>
</mxfile>
